<svg id="Layer_1" data-name="Layer 1" xmlns="http://www.w3.org/2000/svg" viewBox="0 0 1000 1000">
    <defs><style>.cls-1{fill:#004bff;}.cls-2{fill:#fff;}</style></defs>
    <rect class="cls-1" x="-1" y="-1" width="1002" height="1002" rx="200"/>
    <path class="cls-2" d="M577.69,291.36c6.57-2.25,10.59-4.85,10.34-7.27-.47-4.57-15.9-6.78-34.9-5.12,13.17-6.91,21.11-13.78,19.66-18-2.19-6.41-25-4.47-51.7,4.19,2.2-4.86,2.61-9,.77-12-6.76-10.9-44.38.34-75.05,17.8a303.41,303.41,0,0,0-32.25,20.44c-40.73,31-68.1,78.4-68.1,132.44A153.67,153.67,0,1,0,577.69,291.36ZM500.13,521.12A90.84,90.84,0,0,1,409.3,430.3H591A90.83,90.83,0,0,1,500.13,521.12Z"/>
    <path class="cls-2" d="M807.77,381.36c-14.78-12.07-34.44-15-52.58-10.11-32.87,8.91-35.75,43.67-40.39,71.59-12.54,75.41-59.61,148.22-130.39,181.21-53.32,24.84-129.44,22.66-181-6.19C351.33,588.71,313.65,538.45,295,482.22a261.36,261.36,0,0,1-9.77-39.38c-4.64-27.92-7.52-62.68-40.39-71.59-18.14-4.91-37.8-2-52.58,10.11-24.53,20-21.63,56.38-17.91,84.38a333.38,333.38,0,0,0,60.21,150.54c77.25,106.93,217.26,157.65,345.09,125.1,73.24-18.66,141.58-63.61,185.84-125.1a333.28,333.28,0,0,0,60.22-150.54C829.4,437.74,832.3,401.4,807.77,381.36Z"/>
</svg>