<svg width="375" height="812" viewBox="0 0 375 812" fill="none" style="background-colo:blue" xmlns="http://www.w3.org/2000/svg">
    <rect width="100%" height="100%" fill="#004BFF"></rect>
    <path fill-rule="evenodd" clip-rule="evenodd" d="M354.5 -53C310.041 -53 274 -16.9589 274 27.5C274 71.9589 310.041 108 354.5 108C398.959 108 435 71.9589 435 27.5C435 -16.9589 398.959 -53 354.5 -53ZM234 27.5C234 -39.0503 287.95 -93 354.5 -93C421.05 -93 475 -39.0503 475 27.5C475 94.0503 421.05 148 354.5 148C287.95 148 234 94.0503 234 27.5Z" fill="white" fill-opacity="0.2"/>
    <path fill-rule="evenodd" clip-rule="evenodd" d="M248.5 355C204.041 355 168 391.041 168 435.5C168 479.959 204.041 516 248.5 516C292.959 516 329 479.959 329 435.5C329 391.041 292.959 355 248.5 355ZM128 435.5C128 368.95 181.95 315 248.5 315C315.05 315 369 368.95 369 435.5C369 502.05 315.05 556 248.5 556C181.95 556 128 502.05 128 435.5Z" fill="white" fill-opacity="0.2"/>
    <path fill-rule="evenodd" clip-rule="evenodd" d="M-23.5 149C-67.9589 149 -104 185.041 -104 229.5C-104 273.959 -67.9589 310 -23.5 310C20.9589 310 57 273.959 57 229.5C57 185.041 20.9589 149 -23.5 149ZM-144 229.5C-144 162.95 -90.0503 109 -23.5 109C43.0503 109 97 162.95 97 229.5C97 296.05 43.0503 350 -23.5 350C-90.0503 350 -144 296.05 -144 229.5Z" fill="white" fill-opacity="0.2"/>
    <path fill-rule="evenodd" clip-rule="evenodd" d="M395.5 650C351.041 650 315 686.041 315 730.5C315 774.959 351.041 811 395.5 811C439.959 811 476 774.959 476 730.5C476 686.041 439.959 650 395.5 650ZM275 730.5C275 663.95 328.95 610 395.5 610C462.05 610 516 663.95 516 730.5C516 797.05 462.05 851 395.5 851C328.95 851 275 797.05 275 730.5Z" fill="white" fill-opacity="0.2"/>
    <path fill-rule="evenodd" clip-rule="evenodd" d="M37.5 626C-6.95892 626 -43 662.041 -43 706.5C-43 750.959 -6.95892 787 37.5 787C81.9589 787 118 750.959 118 706.5C118 662.041 81.9589 626 37.5 626ZM-83 706.5C-83 639.95 -29.0503 586 37.5 586C104.05 586 158 639.95 158 706.5C158 773.05 104.05 827 37.5 827C-29.0503 827 -83 773.05 -83 706.5Z" fill="white" fill-opacity="0.2"/>
</svg>
