<svg width="343" height="343" viewBox="0 0 343 343" fill="none" xmlns="http://www.w3.org/2000/svg">
<path d="M106.721 251.642L97.2885 241.04L105.785 232.122C106.046 231.886 106.257 231.599 106.403 231.279C106.55 230.958 106.63 230.612 106.639 230.259C106.636 229.568 106.361 228.907 105.872 228.418C105.384 227.929 104.723 227.653 104.032 227.649C103.639 227.644 103.249 227.723 102.889 227.881C102.529 228.038 102.207 228.27 101.943 228.561L91.7799 239.194C91.2923 239.662 91.0026 240.3 90.9705 240.975C90.9956 241.667 91.2682 242.328 91.7388 242.837L102.454 254.849C103.36 255.902 104.605 256.293 105.833 255.789C106.257 255.608 106.627 255.321 106.907 254.954C107.187 254.587 107.366 254.154 107.428 253.697C107.48 253.323 107.443 252.942 107.32 252.585C107.197 252.228 106.992 251.905 106.721 251.642ZM86.9574 227.663C86.5759 227.648 86.1953 227.711 85.8392 227.849C85.4831 227.986 85.1589 228.195 84.8867 228.463C84.6145 228.731 84.4 229.051 84.2565 229.405C84.113 229.759 84.0434 230.138 84.0522 230.52V253.079C84.0435 253.743 84.265 254.39 84.6788 254.91C85.0927 255.429 85.6735 255.789 86.3228 255.929C86.7424 256.029 87.1792 256.032 87.5999 255.937C88.0207 255.843 88.4143 255.654 88.751 255.384C89.0876 255.114 89.3584 254.772 89.5427 254.382C89.727 253.992 89.82 253.565 89.8146 253.134V230.52C89.8211 230.143 89.7516 229.769 89.6103 229.419C89.469 229.069 89.2588 228.752 88.9922 228.485C88.7256 228.219 88.408 228.008 88.0584 227.867C87.7088 227.726 87.3344 227.656 86.9574 227.663Z" fill="white"/>
<path d="M115.217 234.536C114.839 234.521 114.461 234.582 114.108 234.717C113.754 234.851 113.431 235.057 113.159 235.32C112.888 235.584 112.672 235.9 112.527 236.249C112.381 236.599 112.308 236.974 112.312 237.352V253.13C112.338 253.878 112.653 254.586 113.191 255.106C113.728 255.625 114.447 255.916 115.195 255.916C115.943 255.916 116.661 255.625 117.199 255.106C117.737 254.586 118.052 253.878 118.078 253.13V237.356C118.083 236.981 118.013 236.608 117.871 236.261C117.729 235.913 117.517 235.598 117.25 235.335C116.983 235.071 116.665 234.865 116.315 234.727C115.966 234.59 115.592 234.525 115.217 234.536ZM115.217 224.144C113.211 224.144 111.585 225.632 111.585 227.539C111.585 229.446 113.211 230.894 115.217 230.894C117.138 230.894 118.801 229.402 118.801 227.539C118.801 225.677 117.138 224.144 115.217 224.144Z" fill="white"/>
<path d="M142.067 223.934C141.687 223.923 141.308 223.989 140.954 224.128C140.6 224.267 140.278 224.477 140.006 224.744C139.735 225.01 139.521 225.33 139.376 225.682C139.232 226.033 139.16 226.411 139.165 226.792V236.982C137.714 235.449 135.492 234.536 132.844 234.536C126.913 234.536 122.598 239.054 122.598 245.265C122.598 251.477 126.91 255.991 132.844 255.991C135.588 255.991 137.841 255.038 139.292 253.381C139.344 254.092 139.663 254.758 140.187 255.242C140.71 255.727 141.398 255.995 142.112 255.991C142.484 256.001 142.855 255.935 143.201 255.797C143.547 255.659 143.862 255.452 144.125 255.188C144.389 254.925 144.596 254.61 144.734 254.264C144.872 253.918 144.938 253.548 144.928 253.175V226.792C144.938 226.413 144.87 226.037 144.73 225.686C144.59 225.334 144.379 225.015 144.112 224.748C143.844 224.48 143.525 224.27 143.173 224.131C142.822 223.991 142.445 223.924 142.067 223.934ZM133.914 250.898C130.71 250.898 128.45 248.538 128.45 245.224C128.45 241.993 130.755 239.589 133.914 239.589C137.073 239.589 139.258 241.911 139.258 245.265C139.258 248.62 137.114 250.898 133.914 250.898Z" fill="white"/>
<path d="M171.819 227.663C171.439 227.652 171.06 227.718 170.706 227.857C170.352 227.996 170.029 228.205 169.758 228.472C169.487 228.739 169.273 229.058 169.128 229.41C168.984 229.762 168.912 230.14 168.917 230.52V244.583C168.917 248.394 166.516 250.798 162.726 250.798C158.936 250.798 156.552 248.397 156.552 244.583V230.52C156.526 229.773 156.211 229.064 155.673 228.545C155.136 228.025 154.417 227.735 153.669 227.735C152.921 227.735 152.203 228.025 151.665 228.545C151.127 229.064 150.812 229.773 150.786 230.52V244.189C150.786 251.227 155.612 255.991 162.74 255.991C169.867 255.991 174.693 251.227 174.693 244.189V230.52C174.7 230.142 174.63 229.766 174.488 229.415C174.345 229.064 174.133 228.746 173.865 228.479C173.597 228.212 173.277 228.002 172.925 227.862C172.574 227.722 172.197 227.654 171.819 227.663Z" fill="white"/>
<path d="M192.396 234.536C189.652 234.536 187.401 235.49 185.951 237.147C185.932 236.428 185.629 235.746 185.11 235.249C184.59 234.752 183.895 234.481 183.176 234.495C182.804 234.483 182.433 234.545 182.086 234.679C181.739 234.813 181.423 235.016 181.156 235.275C180.889 235.534 180.677 235.844 180.532 236.187C180.388 236.53 180.314 236.898 180.315 237.27V260.628C180.315 261.393 180.619 262.125 181.159 262.666C181.699 263.206 182.432 263.51 183.196 263.51C183.96 263.51 184.693 263.206 185.234 262.666C185.774 262.125 186.077 261.393 186.077 260.628V253.508C187.528 255.079 189.748 255.991 192.396 255.991C198.329 255.991 202.641 251.436 202.641 245.224C202.641 239.013 198.329 234.536 192.396 234.536ZM191.329 250.897C188.17 250.897 185.992 248.579 185.992 245.224C185.992 241.87 188.125 239.589 191.329 239.589C194.532 239.589 196.793 241.952 196.793 245.265C196.793 248.579 194.481 250.897 191.329 250.897Z" fill="white"/>
<path d="M209.686 248.287C209.168 248.27 208.652 248.357 208.168 248.543C207.684 248.728 207.242 249.009 206.868 249.368C206.494 249.727 206.196 250.157 205.991 250.633C205.785 251.109 205.677 251.621 205.673 252.139C205.673 254.293 207.388 255.991 209.686 255.991C210.708 255.991 211.688 255.585 212.41 254.863C213.132 254.14 213.538 253.161 213.538 252.139C213.538 251.118 213.132 250.138 212.41 249.415C211.688 248.693 210.708 248.287 209.686 248.287Z" fill="white"/>
<path d="M237.133 251.683L231.072 244.312L236.45 239.009C236.738 238.76 236.97 238.454 237.132 238.111C237.294 237.767 237.382 237.393 237.39 237.013C237.39 235.603 236.238 234.526 234.742 234.526C234.366 234.527 233.994 234.605 233.649 234.755C233.304 234.905 232.994 235.123 232.736 235.397L225.989 242.23C225.265 243.019 224.96 243.602 224.96 244.288C224.96 244.909 225.217 245.488 225.855 246.318L233.058 254.931C233.39 255.364 233.848 255.684 234.369 255.847C234.89 256.009 235.449 256.006 235.968 255.838C236.488 255.67 236.942 255.345 237.269 254.908C237.596 254.471 237.78 253.944 237.795 253.398C237.786 252.766 237.551 252.157 237.133 251.683ZM221.166 223.934C220.786 223.923 220.407 223.989 220.053 224.128C219.699 224.267 219.377 224.476 219.106 224.743C218.835 225.01 218.62 225.329 218.476 225.681C218.331 226.033 218.259 226.411 218.265 226.791V253.134C218.259 253.514 218.331 253.892 218.476 254.244C218.62 254.596 218.835 254.915 219.106 255.182C219.377 255.449 219.699 255.658 220.053 255.797C220.407 255.936 220.786 256.002 221.166 255.991C221.545 256.001 221.921 255.935 222.272 255.795C222.624 255.655 222.943 255.445 223.211 255.177C223.479 254.91 223.689 254.591 223.829 254.24C223.97 253.888 224.037 253.512 224.027 253.134V226.791C224.043 226.412 223.98 226.033 223.842 225.679C223.704 225.324 223.494 225.003 223.225 224.734C222.956 224.466 222.634 224.256 222.28 224.118C221.925 223.98 221.546 223.918 221.166 223.934Z" fill="white"/>
<path d="M256.468 250.774H247.931L257.751 239.219C258.005 238.97 258.207 238.673 258.346 238.346C258.485 238.019 258.558 237.667 258.56 237.312C258.56 235.988 257.494 234.993 256.087 234.993H243.149C242.832 234.981 242.515 235.033 242.218 235.146C241.921 235.259 241.649 235.431 241.42 235.652C241.191 235.872 241.009 236.137 240.885 236.429C240.76 236.722 240.696 237.037 240.696 237.354C240.696 237.672 240.76 237.987 240.885 238.28C241.009 238.572 241.191 238.837 241.42 239.057C241.649 239.278 241.921 239.45 242.218 239.563C242.515 239.676 242.832 239.728 243.149 239.716H250.836L241.102 251.104C240.333 251.934 240.117 252.431 240.117 253.134C240.119 253.45 240.184 253.762 240.308 254.053C240.431 254.343 240.612 254.606 240.839 254.826C241.066 255.046 241.334 255.218 241.628 255.333C241.923 255.447 242.237 255.502 242.552 255.494H256.468C256.788 255.507 257.107 255.456 257.407 255.343C257.707 255.231 257.981 255.06 258.213 254.84C258.446 254.62 258.632 254.356 258.762 254.063C258.891 253.77 258.96 253.454 258.965 253.134C258.965 251.762 257.878 250.774 256.468 250.774Z" fill="white"/>
<path d="M189.535 90.0717C191.161 89.5161 192.152 88.8712 192.09 88.2744C191.974 87.1425 188.156 86.5937 183.457 87.0053C186.715 85.2903 188.681 83.5993 188.321 82.5463C187.779 80.9616 182.147 81.4418 175.53 83.5753C176.076 82.3748 176.175 81.3492 175.719 80.6118C174.048 77.9158 164.743 80.6975 157.152 85.0159C154.39 86.5335 151.725 88.2232 149.174 90.0752C139.097 97.7412 132.326 109.472 132.326 122.842C132.317 129.509 134.062 136.06 137.385 141.84C140.708 147.62 145.492 152.424 151.258 155.771C157.024 159.118 163.568 160.89 170.235 160.909C176.901 160.928 183.456 159.194 189.241 155.88C195.026 152.566 199.838 147.79 203.194 142.029C206.55 136.269 208.332 129.727 208.362 123.061C208.392 116.394 206.668 109.837 203.363 104.047C200.059 98.2564 195.29 93.437 189.535 90.0717ZM170.327 146.917C164.368 146.916 158.653 144.549 154.439 140.335C150.226 136.121 147.858 130.406 147.857 124.447H192.79C192.789 130.402 190.425 136.113 186.216 140.326C182.008 144.539 176.299 146.91 170.344 146.917H170.327Z" fill="white"/>
<path d="M246.459 112.339C242.803 109.352 237.939 108.621 233.449 109.839C225.317 112.041 224.607 120.64 223.458 127.548C220.353 146.204 208.709 164.222 191.195 172.382C178.007 178.528 159.173 177.986 146.416 170.852C133.53 163.649 124.207 151.205 119.587 137.293C118.534 134.112 117.731 130.854 117.186 127.548C116.037 120.64 115.327 112.041 107.191 109.839C102.704 108.621 97.8408 109.352 94.1844 112.339C88.1133 117.296 88.8336 126.286 89.7528 133.214C91.5701 146.669 96.6811 159.466 104.632 170.471C123.744 196.916 158.387 209.463 190.022 201.41C208.132 196.796 225.039 185.673 235.984 170.471C243.941 159.471 249.059 146.677 250.884 133.225C251.81 126.286 252.527 117.306 246.459 112.339Z" fill="white"/>
</svg>
