<svg id="Layer_1" data-name="Layer 1" xmlns="http://www.w3.org/2000/svg" viewBox="0 0 1000 1000"><defs><style>.cls-1{fill:white;}</style></defs><path class="cls-1" d="M577.69,291.36c6.57-2.25,10.59-4.85,10.34-7.27-.47-4.57-15.9-6.78-34.9-5.12,13.17-6.91,21.11-13.78,19.66-18-2.19-6.41-25-4.48-51.7,4.19,2.2-4.86,2.61-9,.77-12-6.76-10.89-44.38.35-75.05,17.8a305.29,305.29,0,0,0-32.25,20.45c-40.73,31-68.1,78.4-68.1,132.44A153.67,153.67,0,1,0,577.69,291.36ZM500.13,521.12a90.84,90.84,0,0,1-90.83-90.83H591A90.83,90.83,0,0,1,500.13,521.12Z"/><path class="cls-1" d="M807.77,381.36c-14.78-12.07-34.44-15-52.58-10.1-32.87,8.9-35.75,43.66-40.39,71.58-12.54,75.41-59.61,148.23-130.39,181.21-53.32,24.84-129.44,22.66-181-6.19-52.09-29.15-89.77-79.4-108.45-135.64a261.06,261.06,0,0,1-9.77-39.38c-4.64-27.92-7.52-62.68-40.39-71.58-18.14-4.92-37.8-2-52.58,10.1-24.53,20-21.63,56.38-17.91,84.38a333.38,333.38,0,0,0,60.21,150.54c77.25,106.93,217.26,157.65,345.09,125.1,73.24-18.65,141.58-63.61,185.84-125.1a333.28,333.28,0,0,0,60.22-150.54C829.4,437.74,832.3,401.4,807.77,381.36Z"/></svg>