<svg xmlns="http://www.w3.org/2000/svg" xmlns:xlink="http://www.w3.org/1999/xlink" width="500" zoomAndPan="magnify" viewBox="0 0 375 374.999991" height="500" preserveAspectRatio="xMidYMid meet" version="1.0"><defs><g/></defs><rect x="-37.5" width="450" fill="#ffffff" y="-37.499999" height="449.999989" fill-opacity="1"/><rect x="-37.5" width="450" fill="#1a4e8b" y="-37.499999" height="449.999989" fill-opacity="1"/><g fill="#f1efe7" fill-opacity="1"><g transform="translate(69.906778, 205.225284)"><g><path d="M 6.40625 -59.59375 L 54.578125 -59.59375 L 54.578125 -45.3125 L 25.546875 -45.3125 L 25.546875 -35.078125 L 50.5 -35.078125 L 50.5 -21.390625 L 25.546875 -21.390625 L 25.546875 0 L 6.40625 0 Z M 6.40625 -59.59375 "/></g></g></g><g fill="#f1efe7" fill-opacity="1"><g transform="translate(122.736592, 205.225284)"><g><path d="M 5.796875 0 L 5.796875 -62.796875 L 23.046875 -62.796875 L 23.046875 0 Z M 5.796875 0 "/></g></g></g><g fill="#f1efe7" fill-opacity="1"><g transform="translate(146.639472, 205.225284)"><g><path d="M 5.796875 -51.109375 L 5.796875 -62.796875 L 23.046875 -62.796875 L 23.046875 -51.109375 Z M 5.796875 0 L 5.796875 -45.734375 L 23.046875 -45.734375 L 23.046875 0 Z M 5.796875 0 "/></g></g></g><g fill="#f1efe7" fill-opacity="1"><g transform="translate(170.542348, 205.225284)"><g><path d="M 28.84375 -46.78125 C 36.351562 -46.78125 42.429688 -45.175781 47.078125 -41.96875 C 51.722656 -38.757812 54.046875 -33.863281 54.046875 -27.28125 L 37.328125 -27.28125 C 37.328125 -32.476562 34.5 -35.078125 28.84375 -35.078125 C 23.1875 -35.078125 20.359375 -31.816406 20.359375 -25.296875 L 20.359375 -20.359375 C 20.359375 -13.890625 23.300781 -10.65625 29.1875 -10.65625 C 35.082031 -10.65625 38.03125 -13.3125 38.03125 -18.625 L 54.046875 -18.625 C 54.046875 -11.976562 51.722656 -7.035156 47.078125 -3.796875 C 42.429688 -0.566406 36.351562 1.046875 28.84375 1.046875 C 20.820312 1.046875 14.53125 -0.972656 9.96875 -5.015625 C 5.40625 -9.066406 3.125 -15.019531 3.125 -22.875 C 3.125 -30.726562 5.40625 -36.675781 9.96875 -40.71875 C 14.53125 -44.757812 20.820312 -46.78125 28.84375 -46.78125 Z M 28.84375 -46.78125 "/></g></g></g><g fill="#f1efe7" fill-opacity="1"><g transform="translate(223.372167, 205.225284)"><g><path d="M 28.84375 -46.78125 C 36.875 -46.78125 43.179688 -44.742188 47.765625 -40.671875 C 52.359375 -36.597656 54.65625 -30.664062 54.65625 -22.875 C 54.65625 -15.070312 52.359375 -9.132812 47.765625 -5.0625 C 43.179688 -0.988281 36.875 1.046875 28.84375 1.046875 C 20.820312 1.046875 14.53125 -0.972656 9.96875 -5.015625 C 5.40625 -9.066406 3.125 -15.019531 3.125 -22.875 C 3.125 -30.726562 5.40625 -36.675781 9.96875 -40.71875 C 14.53125 -44.757812 20.820312 -46.78125 28.84375 -46.78125 Z M 28.84375 -35.078125 C 23.1875 -35.078125 20.359375 -31.816406 20.359375 -25.296875 L 20.359375 -20.359375 C 20.359375 -13.890625 23.1875 -10.65625 28.84375 -10.65625 C 34.5625 -10.65625 37.421875 -13.890625 37.421875 -20.359375 L 37.421875 -25.296875 C 37.421875 -31.816406 34.5625 -35.078125 28.84375 -35.078125 Z M 28.84375 -35.078125 "/></g></g></g><g fill="#f1efe7" fill-opacity="1"><g transform="translate(276.201986, 205.225284)"><g><path d="M 5.28125 0 L 5.28125 -17.234375 L 23.65625 -17.234375 L 23.65625 0 Z M 5.28125 0 "/></g></g></g></svg>